# xmcd
# 
# Track frame offsets:
#     150
#     18387
#     34465
#     46342
#     60935
#     69617
#     80855
#     93887
#     117480
#     138572
#     155695
#     168632
# 
# Disc length: 2411
# 
# Revision: 6
# Processed by: cddbd v1.5.2PL0 Copyright (c) Steve Scherf et al.
# Submitted via: fre:ac v1.0.17
# 
DISCID=a809690c
DTITLE=Various Artist - New Country - January 1996
DYEAR=1996
DGENRE=Country
TTITLE0=Jann Browne - Hearts On The Blue Train
TTITLE1=Gail Davies - In The Worst Way
TTITLE2=The Cactus Brothers - Redhead
TTITLE3=Ted Roddy - She's Been Gone
TTITLE4=Lost And Found - It's Another World
TTITLE5=Big Sandy and His Fly-Rite Boys - My Sinful Days Are Over
TTITLE6=Nashville Bluegrass Band - Blackbirds And Crows
TTITLE7=John Stewart - Midnight Wind
TTITLE8=Mindy Jostyn - All Roads
TTITLE9=Anthony Crawford - On The Edge
TTITLE10=The Reno Brothers - Mr. Coachman
TTITLE11=Jim Matt - Vince Gill, Ricky Skaggs And Me
EXTD=
EXTT0=
EXTT1=
EXTT2=
EXTT3=
EXTT4=
EXTT5=
EXTT6=
EXTT7=
EXTT8=
EXTT9=
EXTT10=
EXTT11=
PLAYORDER=
